<svg xmlns="http://www.w3.org/2000/svg" width="512" height="512" viewBox="0 0 512 512" role="img" aria-label="SoloCerto">
  <defs>
    <linearGradient id="bg" x1="84" y1="68" x2="428" y2="444" gradientUnits="userSpaceOnUse">
      <stop stop-color="#17412f"/>
      <stop offset="0.56" stop-color="#2e8b57"/>
      <stop offset="1" stop-color="#8b5a2b"/>
    </linearGradient>
    <linearGradient id="coffee" x1="176" y1="172" x2="336" y2="342" gradientUnits="userSpaceOnUse">
      <stop stop-color="#b67c42"/>
      <stop offset="0.55" stop-color="#8b5a2b"/>
      <stop offset="1" stop-color="#5e3a18"/>
    </linearGradient>
    <filter id="shadow" x="44" y="46" width="424" height="424" color-interpolation-filters="sRGB" filterUnits="userSpaceOnUse">
      <feDropShadow dx="0" dy="18" stdDeviation="18" flood-color="#123524" flood-opacity="0.28"/>
    </filter>
  </defs>

  <rect width="512" height="512" rx="110" fill="#f8f5f2"/>
  <g filter="url(#shadow)">
    <rect x="68" y="68" width="376" height="376" rx="96" fill="url(#bg)"/>
  </g>

  <circle cx="256" cy="244" r="132" fill="none" stroke="#f8f5f2" stroke-opacity="0.28" stroke-width="22"/>
  <circle cx="256" cy="244" r="88" fill="none" stroke="#f8f5f2" stroke-opacity="0.38" stroke-width="18"/>
  <circle cx="256" cy="244" r="44" fill="#f8f5f2" fill-opacity="0.16"/>
  <path fill="none" stroke="#f8f5f2" stroke-linecap="round" stroke-opacity="0.42" stroke-width="13" d="M256 94v46M256 348v46M106 244h46M360 244h46"/>

  <path fill="url(#coffee)" d="M184 170c46-34 113-20 150 32 38 53 31 124-15 158-46 33-112 18-150-34-38-52-31-123 15-156z"/>
  <path fill="#f1e4d4" fill-opacity="0.9" d="M255 158c-18 47-10 86 23 118 22 22 29 48 16 80 40-34 42-84 6-122-24-25-31-51-20-78-9-2-17-2-25 2z"/>
  <path fill="none" stroke="#5e3a18" stroke-linecap="round" stroke-opacity="0.38" stroke-width="10" d="M232 179c-24 42-16 83 22 122"/>

  <path fill="#f8f5f2" d="M343 315c13-16 36-19 53-7 17 13 20 37 7 54-20 26-44 43-76 54-32-11-57-28-77-54-13-17-10-41 7-54 17-12 40-9 53 7l17 21 16-21z"/>
  <path fill="none" stroke="#2e8b57" stroke-linecap="round" stroke-linejoin="round" stroke-width="22" d="m286 351 29 29 60-68"/>
</svg>
